<?xml version="1.0" encoding="UTF-8" standalone="no"?>
<!-- Created with Inkscape (http://www.inkscape.org/) -->
<svg xmlns:dc="http://purl.org/dc/elements/1.1/" xmlns:cc="http://web.resource.org/cc/" xmlns:rdf="http://www.w3.org/1999/02/22-rdf-syntax-ns#" xmlns:svg="http://www.w3.org/2000/svg" xmlns="http://www.w3.org/2000/svg" xmlns:sodipodi="http://sodipodi.sourceforge.net/DTD/sodipodi-0.dtd" xmlns:inkscape="http://www.inkscape.org/namespaces/inkscape" id="svg2272" sodipodi:version="0.32" inkscape:version="0.45.1" width="135" height="135" version="1.0" sodipodi:docbase="C:\Dokumente und Einstellungen\Hermann\Desktop" sodipodi:docname="geohashing_logo.svg" inkscape:output_extension="org.inkscape.output.svg.inkscape">
  <metadata id="metadata2277">
    <rdf:RDF>
      <cc:Work rdf:about="">
        <dc:format>image/svg+xml</dc:format>
        <dc:type rdf:resource="http://purl.org/dc/dcmitype/StillImage"/>
      </cc:Work>
    </rdf:RDF>
  </metadata>
  <defs id="defs2275"/>
  <sodipodi:namedview inkscape:window-height="968" inkscape:window-width="1280" inkscape:pageshadow="2" inkscape:pageopacity="0.0" guidetolerance="10.0" gridtolerance="10.0" objecttolerance="10.0" borderopacity="1.0" bordercolor="#666666" pagecolor="#ffffff" id="base" inkscape:zoom="2.7925926" inkscape:cx="67.5" inkscape:cy="67.5" inkscape:window-x="-4" inkscape:window-y="-4" inkscape:current-layer="svg2272"/>
  <path style="fill:#000000" d="M 55.241352,110.21629 C 55.152943,108.63863 62.463262,81.690072 63.470037,79.882295 C 64.699049,77.675467 65.336712,62.703737 64.145602,64.020688 C 63.765986,64.44041 62.688911,67.14632 61.752103,70.03382 C 60.815295,72.92132 59.514752,75.28382 58.862007,75.28382 C 58.209262,75.28382 55.432927,73.330764 52.692373,70.943696 C 49.95182,68.556627 46.472049,66.298054 44.959549,65.924644 C 43.447049,65.551233 42.209549,64.627434 42.209549,63.871757 C 42.209549,63.116079 41.534549,62.238776 40.709549,61.922194 C 39.884549,61.605611 39.209549,60.657466 39.209549,59.815205 C 39.209549,58.044573 39.592527,57.955137 41.973118,59.169836 C 42.928155,59.657145 46.072049,61.084067 48.959549,62.340773 C 53.943022,64.509696 55.427309,66.413169 53.205751,67.786167 C 52.332834,68.32566 57.118463,73.28382 58.512101,73.28382 C 58.794712,73.28382 59.918697,70.69632 61.009843,67.53382 C 62.10099,64.37132 63.286666,61.07132 63.64468,60.200487 C 64.182527,58.892228 63.502644,58.617153 59.731263,58.617153 C 53.869249,58.617153 49.787946,54.970586 47.67079,47.84135 C 46.242288,43.031062 46.277442,42.626908 48.500009,38.308039 C 49.776538,35.827501 51.943782,33.167753 53.316107,32.397487 C 57.046143,30.303872 64.549834,31.722558 68.522998,35.272579 C 71.475468,37.910611 71.708106,38.584906 71.689899,44.451791 C 71.675161,49.200866 71.093024,51.799352 69.361271,54.846085 L 67.052293,58.90835 L 70.73182,65.186508 L 74.411348,71.464667 L 77.060449,68.937484 C 78.517454,67.547533 81.016641,65.735395 82.614198,64.910509 C 85.465486,63.438269 85.567925,63.478442 88.19033,67.097268 C 89.659646,69.124872 92.568882,72.085277 94.655298,73.675947 L 98.448779,76.568075 L 95.739429,78.175947 C 94.249285,79.060277 91.952017,81.893416 90.634389,84.471811 C 89.316761,87.050205 86.615861,90.397602 84.632389,91.910471 L 81.026075,94.66114 L 77.867812,91.096018 C 76.130767,89.1352 73.238389,86.538494 71.440305,85.32556 L 68.17106,83.120225 L 71.190305,79.308118 C 74.587685,75.018576 74.926277,73.123541 72.635077,71.222013 C 71.769117,70.503331 69.979412,67.86073 68.657954,65.349569 L 66.255304,60.78382 L 66.369757,70.28382 C 66.432706,75.50882 65.929698,82.801328 65.251961,86.489393 L 64.019712,93.194966 L 71.257855,100.26284 C 75.238834,104.15016 78.223926,107.60278 77.891393,107.93531 C 77.55886,108.26784 73.902648,105.44479 69.766477,101.66187 C 62.483326,95.000726 62.264127,94.66556 62.815755,91.03382 C 63.911064,83.822651 62.408472,87.369074 60.152193,97.320369 C 58.900608,102.84047 57.290813,108.12797 56.57487,109.07037 C 55.858927,110.01277 55.258844,110.52843 55.241352,110.21629 z M 83.209549,90.78382 C 83.903982,89.94708 84.012265,89.28382 83.454438,89.28382 C 82.904438,89.28382 81.894238,89.95882 81.209549,90.78382 C 80.515116,91.62056 80.406833,92.28382 80.96466,92.28382 C 81.51466,92.28382 82.52486,91.60882 83.209549,90.78382 z M 84.373518,88.46086 C 86.078311,88.702002 87.01899,88.034844 88.086646,85.827397 C 89.711862,82.467159 90.362225,75.496213 89.122017,74.729723 C 88.668201,74.449249 88.544259,73.575154 88.846591,72.787289 C 89.148923,71.999425 88.42586,69.991971 87.239784,68.326282 C 85.150776,65.392539 84.992294,65.344806 82.17606,66.801138 C 79.223988,68.327714 77.18481,71.081926 77.239958,73.468079 C 77.258927,74.288859 77.653804,74.125497 78.289648,73.03382 C 78.885833,72.010233 80.500601,71.28382 82.179784,71.28382 C 84.554083,71.28382 85.164171,71.800729 85.70703,74.272352 C 86.068046,75.916045 86.778801,77.517603 87.286486,77.831369 C 88.807237,78.771246 88.330752,81.30008 86.500579,82.002383 C 85.560646,82.363069 83.808801,83.800759 82.607591,85.197249 C 80.604268,87.52625 80.212269,87.623235 77.869598,86.369476 C 74.291129,84.454337 73.961363,82.818785 76.340632,78.786224 C 79.246776,73.860677 76.550064,74.137606 73.022813,79.126935 L 70.336078,82.927347 L 73.049735,84.530344 C 74.542246,85.411992 76.607084,87.065609 77.638262,88.205049 C 79.02424,89.736538 79.849144,89.997893 80.801715,89.207329 C 81.510435,88.619143 83.117747,88.283233 84.373518,88.46086 z M 84.728902,75.98438 C 83.095833,72.075897 80.521704,71.098197 79.593385,74.03382 C 79.289018,74.99632 78.311546,77.522882 77.421226,79.648401 C 75.883133,83.320392 75.898098,83.582913 77.721513,84.916227 C 79.4502,86.180273 79.969628,85.990408 82.95783,83.002206 C 86.264109,79.695927 86.269974,79.672685 84.728902,75.98438 z M 95.178124,76.293273 C 95.16084,76.013074 93.963616,74.920833 92.517625,73.866071 L 89.888551,71.948321 L 90.535395,74.366071 C 90.89116,75.695833 91.188384,77.350133 91.195894,78.042294 C 91.206833,79.050429 91.607395,79.052309 93.209549,78.051747 C 94.309549,77.364786 95.195408,76.573472 95.178124,76.293273 z M 51.709549,65.28382 C 51.36963,64.73382 50.641515,64.28382 50.091515,64.28382 C 49.541515,64.28382 49.36963,64.73382 49.709549,65.28382 C 50.049468,65.83382 50.777583,66.28382 51.327583,66.28382 C 51.877583,66.28382 52.049468,65.83382 51.709549,65.28382 z M 47.709549,63.28382 C 47.36963,62.73382 46.416515,62.28382 45.591515,62.28382 C 44.766515,62.28382 44.36963,62.73382 44.709549,63.28382 C 45.049468,63.83382 46.002583,64.28382 46.827583,64.28382 C 47.652583,64.28382 48.049468,63.83382 47.709549,63.28382 z M 66.49716,55.864272 C 70.424374,52.885396 71.511292,41.208435 68.24757,37.059285 C 67.14366,35.655892 64.273076,34.001563 61.683971,33.276659 C 57.485214,32.101079 56.847162,32.163582 54.39595,33.990583 C 52.91843,35.091847 50.845022,37.469305 49.788377,39.273823 C 48.090805,42.172906 48.006159,43.091834 49.061099,47.169292 C 50.720006,53.581151 54.922851,57.293721 60.475326,57.252017 C 62.804148,57.234525 65.513974,56.61004 66.49716,55.864272 z M 13.793201,90.53382 C 11.199916,82.299271 11.672048,60.07218 14.563355,54.276417 C 15.922482,51.551984 15.866246,51.288899 13.608545,49.809597 C 10.344034,47.670607 10.558994,46.064914 13.879252,47.787485 C 17.326668,49.576026 20.209549,48.155919 20.209549,44.669181 C 20.209549,42.394169 20.510176,42.190938 23.050207,42.748823 C 26.718131,43.554434 28.674992,41.361037 27.871693,37.344538 C 27.302182,34.496987 27.399241,34.411797 31.154021,34.463617 C 37.321981,34.548742 38.254009,33.035835 35.731156,27.03382 C 35.148698,25.648117 35.496634,25.28382 37.40256,25.28382 C 38.726404,25.28382 40.349549,24.74382 41.009549,24.08382 C 42.688971,22.404398 42.504816,18.43623 40.66193,16.593344 C 39.810739,15.742153 39.373239,14.786796 39.689708,14.470328 C 40.522255,13.637781 43.884388,17.394943 44.674728,20.041058 C 45.18793,21.759293 44.615912,23.031303 42.279234,25.367981 C 40.590907,27.056308 39.209549,29.49539 39.209549,30.788163 C 39.209549,33.620012 34.538565,37.603122 31.99706,36.938504 C 30.600233,36.573225 30.209549,37.072412 30.209549,39.222452 C 30.209549,42.374047 27.488504,45.28382 24.541323,45.28382 C 23.36695,45.28382 22.056779,46.323697 21.391503,47.78382 C 20.765011,49.15882 19.677344,50.28382 18.974466,50.28382 C 16.840602,50.28382 15.125653,57.990925 14.50273,70.380126 L 13.911585,82.137296 L 17.573716,82.824315 C 20.266348,83.329456 23.548809,82.778378 29.972698,80.742705 C 34.777966,79.219959 40.509549,77.617951 42.709549,77.182687 C 44.909549,76.747424 48.059549,76.102258 49.709549,75.748986 L 52.709549,75.106672 L 49.709549,77.188657 C 48.059549,78.333748 45.438892,79.273607 43.885866,79.277231 C 42.33284,79.280855 37.7325,80.401558 33.662888,81.767681 C 23.911939,85.040967 18.987265,85.770409 16.310595,84.337898 C 14.030982,83.117886 13.99531,83.61939 15.869882,90.53382 C 16.130825,91.49632 15.894324,92.28382 15.344324,92.28382 C 14.794324,92.28382 14.096319,91.49632 13.793201,90.53382 z M 114.13752,62.415279 C 109.20219,59.243243 106.31522,56.139543 104.48099,52.03382 C 102.84328,48.36799 101.03971,48.567605 97.040793,52.857281 C 95.208609,54.822685 90.784549,57.762641 87.209549,59.390517 C 83.634549,61.018393 79.928155,62.785335 78.973118,63.317056 C 76.764853,64.546515 76.209549,64.534244 76.209549,63.255988 C 76.209549,62.69068 80.009993,60.439309 84.654979,58.25294 C 89.299966,56.066572 93.775187,53.314347 94.599914,52.136884 C 96.327881,49.669865 101.13449,46.30008 102.93923,46.290409 C 103.61555,46.286785 105.03177,47.97132 106.08639,50.03382 C 108.27261,54.309356 111.22045,57.620984 116.22983,61.429062 C 121.08833,65.122435 119.50829,65.867187 114.13752,62.415279 z M 112.64938,55.975013 C 113.71629,55.319857 115.80642,53.497904 117.2941,51.926228 L 119.99899,49.068636 L 123.59895,51.514877 C 127.76261,54.344157 127.35392,55.926958 123.03624,53.694196 C 120.27518,52.2664 119.95179,52.32292 117.0863,54.734078 C 115.41969,56.136436 113.30313,57.257357 112.38282,57.225013 C 110.95461,57.174818 110.99365,56.991751 112.64938,55.975013 z " id="path2281" sodipodi:nodetypes="cssssssssssssssssssssscccccsscccsccccccsccccccsssssccsssccsssssssssssssscccssccsssscccccssccsssccsssccssssssccsssssssssssssssssssscccsscccsssssccsssssssssscccccsssc"/>
  <path sodipodi:type="arc" style="opacity:1;fill:none;fill-opacity:1;stroke:#000000;stroke-width:2;stroke-miterlimit:4;stroke-dasharray:none;stroke-opacity:1" id="path2285" sodipodi:cx="61.770557" sodipodi:cy="61.770557" sodipodi:rx="61.770557" sodipodi:ry="61.770557" d="M 123.54111 61.770557 A 61.770557 61.770557 0 1 1  0,61.770557 A 61.770557 61.770557 0 1 1  123.54111 61.770557 z" transform="matrix(1.0171142,0,0,1.0171142,4.4932439,4.851334)"/>
</svg>